<svg width="512" height="512" viewBox="0 0 512 512" xmlns="http://www.w3.org/2000/svg">
  <defs>
    <linearGradient id="grad" x1="0%" y1="0%" x2="100%" y2="100%">
      <stop offset="0%" stop-color="#14b8a6" />
      <stop offset="100%" stop-color="#0891b2" />
    </linearGradient>
  </defs>
  
  <rect width="512" height="512" rx="120" fill="url(#grad)" />
  
  <g transform="translate(112, 112) scale(12)">
    <path 
      d="M21 16V8a2 2 0 0 0-1-1.73l-7-4a2 2 0 0 0-2 0l-7 4A2 2 0 0 0 3 8v8a2 2 0 0 0 1 1.73l7 4a2 2 0 0 0 2 0l7-4A2 2 0 0 0 21 16z" 
      fill="rgba(255, 255, 255, 0.2)" 
      stroke="white" 
      stroke-width="1.5" 
      stroke-linecap="round" 
      stroke-linejoin="round" />
  </g>
</svg>
