<svg xmlns="http://www.w3.org/2000/svg" style="background: #FFFFFF; background-color: light-dark(#FFFFFF, #121212);" xmlns:xlink="http://www.w3.org/1999/xlink" version="1.1" width="1051px" height="831px" viewBox="-0.5 -0.5 1051 831" content="&lt;mxfile&gt;&lt;diagram name=&quot;Component Diagram&quot; id=&quot;comp1&quot;&gt;7VzbcuI4EP0aqjIPSxnM9RGcMEkN7FBDZrNvKWELWxvZ8soiwHz9tnwBg5XYs2M7WWfzEGxZF3xOd6u7JdHSDXf/mSPfWTAL01ZXs/Yt/brV7Xb6nT58yJJDVDIa61GBzYkVVzoVrMgPHBdqcemWWDg4qygYo4L454Um8zxsirMyxDnbnVfbMHo+qo9snClYmYhmSx+IJZzkvTTt9OAWE9uJhx4nD9bIfLI523rxeK2uPgv/oscuSvqK6wcOstguVaTftHSDMyaiK3dvYCqxTWCL2s1eeHr83hx7okgDQQS8c9joGdEtTr71gELz6RoubHlxixEVjuEg4kHN64nvw0frptsaaa1xD64N5vrMk4PCY4JsjtykExj82E/80uKQAC3wXpY7wqVQ0IFLRIntwbUJnWEOBc+YCwLUTOIHLrEs2Xy6YZ6IRacziu8NRhkPu9a18O84aBqTGCbZM96nimKMPmPmYsEPUCV+2kv4PZzL6e4kHEfZcFJy0YvLUCyP9rHnEydwEdOipmiDH/0nO5+jGYf3xyB4XW0JUiglvKtdmZSErMw+FeID5NGXl+7elprdDg6BS9t+3J8+ZYDZhoYSuyHyK08pWmP6J9xLUTvRR/FGDhBAU+LZ8/DuuqOdc71ziMArqCKH3MGAkkXoNsVirD3Qk+DsCav4TcuBXg7f/XO6h1m6Byq6h8MS+N6SR5v7+Xx/v4MKc3QAJZE8JwoY1MF1Z1Av1+Px+ILoTjlEjy70WqHYQHWWab1TAtPmYwDT3BrxfLKvDx5yiblK6v8EvUfJyGNMH/yy+pVkbjuX5ravoEWlgHq/DFYcjCxcnJTbuPoH42Tcr5MTig5sK/I5WYLtmsd1PxYhR2ejHkKk52p6+YSs4nqzcL4yUtOUip5BKzSt+vRquhWCQTsj8igps6PrKbKkZyMvDcStdrv9qdGsjhRq1lW5mqWwKhgKCmjZvawWOh5Qglw/fHftPmqs3TL29AK/zSVKr1f9XCYIK6B+M4jEQqIWcYPXtW7iEYhRoWLQaK3SVVpVFVm+Xcyhl1NXIH15JMPrGpx4vSFOvD4s4MX3leF5CV6838lQO0eeBSCGkbiNm6RI+vjfeuZlIN3NID2x3CglhQJnzcAfaDTY4zrB1jNg/4E52cjvd81MwXjwAeQb7EaNkPcykC8Qf8LCp9LiwsywwBYB3HCzZucM6IM65byfAT0S749iVXStTrQHL6M98X1GPOFG0WGDAdfrtCnDDOBLjgOTk7W0KIlBaTTeivR9dXiPsnhDQBWvjH0Ee9JTed+VwT3OwD0j4RrYyUdpdWVyYiLTT6utDTHWKXJuKAM9hYHpVMVA0nGKAsNBUtyvlt0lfNx4Jj/4AluNdlp6oxrF3hT7F3IKFwCHWxGwbPVS+J6K7tO4ekDHq5BGT5LdEQDU1ALrdhyqBIQv1uZ6qlBTtTbXKQvhgpsjVgIJ3DpPhRrM2xC7rC0QFeRMOv1LdLM2o6PKM3fLAPdxh9fZ+DKD7APUMuSuhv0LqzmnxKUJ1TgyRbQygEwTBD++4YziRpmey2ym0vSo7H0Z21HMRzOW7Tz2knpyQsb79l+5Sz6T6d1xujaOfGoTywKPtVkh7yWFfb1GCkMIP9z8MVDEuf2eAuJRaRAXnkAONEoX33h2GIy922kjC2qt04bYZdC8R4TuIpffWK3kM7kf8errl7lx22iTMagzjQBWPwgy2NuUrREN2uEz7arV04SDXekLCcClYWuI+qXo14k/xy8tIjbXYA/rNNgS4ILm+hu2CYCBojSCFi/b/mdM9lBlsvXKTDYAmxXbCMJwX8IxO9YcS3FpqYf1WmpA3HoN8STh3hzAL01zrYCvC+7Pn1JmPpnxEYrUDv0oFP5/f/7PED7M36CvqzZ8HAt/ifDsho8XDsyY8I7tgNGcwHcRycTKRVychb7vQENLmoSGl1sZVPGuKplXCmHdfMIcxC0HiXaUtMhPVvyOxY7xp9Yp1addgYIj6rAAqk5G/V7/fbi/FTHYVXhn1TFYIFloYZ+yQz5z12E9N1qRW5mc+I3WNJVtrI6n7A6WDE9Rlm/CBdmAkctNCqJTxVmS5I3PODWXNOVm4qpIg6ikmAdzswcH0kOy7QrzZ2IWjHt+ZY9qv7lOiyptr/RaSglw9wW8lgUWaIECOas9IEpx3qrLVJ60DmMKKRpe8F7W1SvSSmWSviqt3BdwWu6WM5nxlH1CSEE8JFDu5CdTDRwI+IEhSNRmRGY8tBUEhO9lJ2dF5KnS/9WRV8BfuY08Tqg1l34jfB59ylcpvBEO5njrStqIu6Uo2j13lZzO1zu6Pmz07Dio06UhZtZw+pw9hz9QcQky9qyJ/PkJuGM+BminUJKgkUmZpjOxRZMiAdtyMx4tvYwuELdxXDUJULF19isXWXw5Bukhz/hshF8DK2u1tsE7ACq9Zn0GVe/toMraiADUUa6kPBP05oipRWv/ZqIFHIK1XLMCpxONqCKEgvscWxqlaaYs3GYgw5IHYtmh23OMP2aUwYuEq7Pxtrbvd+/DulZ1Nk51sLu6E6c2Z39zthUFFl6gM+QT+C/b/GaGbOQkafYiTAiE8UroqH6Lhjrx+xn6khWuv7SSvSerQyCwnF+XHOgUjWL78qzc8aea0myrVoNKcYsKpAdiPgzKttJBnSzvckiez9FiIv2eNry5NpIE3nmBQF5ajUPlvvM24Dl50VGa2/v75ep9UFuRmzSsM4lAzCy3EmKpRV9X928+nZ1NHukZLWOB3sIVyJ5BgoiAvr3bdAHNmSdQl+cEt6ffQwufpX50Tr/5Bw==&lt;/diagram&gt;&lt;/mxfile&gt;"><defs/><rect fill="#FFFFFF" width="100%" height="100%" x="0" y="0" style="fill: light-dark(rgb(255, 255, 255), rgb(18, 18, 18));"/><g><g><rect x="350" y="0" width="500" height="40" fill="none" stroke="none" pointer-events="all"/></g><g><g transform="translate(-0.5 -0.5)"><switch><foreignObject style="overflow: visible; text-align: left;" pointer-events="none" width="100%" height="100%" requiredFeatures="http://www.w3.org/TR/SVG11/feature#Extensibility"><div xmlns="http://www.w3.org/1999/xhtml" style="display: flex; align-items: unsafe center; justify-content: unsafe center; width: 1px; height: 1px; padding-top: 20px; margin-left: 600px;"><div style="box-sizing: border-box; font-size: 0; text-align: center; color: #000000; "><div style="display: inline-block; font-size: 18px; font-family: &quot;Helvetica&quot;; color: light-dark(#000000, #ededed); line-height: 1.2; pointer-events: all; white-space: nowrap; "><b>HealthChain DApp — Component Diagram</b></div></div></div></foreignObject><text x="600" y="25" fill="#000000" font-family="&quot;Helvetica&quot;" font-size="18px" text-anchor="middle">HealthChain DApp — Component Diagram</text></switch></g></g><g><rect x="0" y="60" width="600" height="770" fill="#ffffff" stroke="#000000" pointer-events="all" style="fill: light-dark(rgb(255, 255, 255), rgb(18, 18, 18)); stroke: light-dark(rgb(0, 0, 0), rgb(237, 237, 237));"/><path d="M 0 80 L 210 80 L 220 70 L 220 60" fill="none" stroke="#000000" stroke-miterlimit="10" pointer-events="all" style="stroke: light-dark(rgb(0, 0, 0), rgb(237, 237, 237));"/></g><g><g transform="translate(-0.5 -0.5)"><switch><foreignObject style="overflow: visible; text-align: left;" pointer-events="none" width="100%" height="100%" requiredFeatures="http://www.w3.org/TR/SVG11/feature#Extensibility"><div xmlns="http://www.w3.org/1999/xhtml" style="display: flex; align-items: unsafe center; justify-content: unsafe flex-start; width: 602px; height: 770px; padding-top: 60px; margin-left: 0px;"><div style="box-sizing: border-box; font-size: 0; text-align: left; width: 600px; height: 770px; overflow: hidden; color: #000000; "><div style="display: inline-block; font-size: 13px; font-family: &quot;Helvetica&quot;; color: light-dark(#000000, #ffffff); line-height: 1.2; pointer-events: all; width: 100%; height: 100%; white-space: normal; word-wrap: normal; "><b>Frontend Package (client/)</b></div></div></div></foreignObject><text x="0" y="449" fill="light-dark(#000000, #ffffff)" font-family="&quot;Helvetica&quot;" font-size="13px">Frontend Package (client/)</text></switch></g></g><g><rect x="30" y="100" width="260" height="310" fill="#ffffff" stroke="#999" pointer-events="all" style="fill: light-dark(rgb(255, 255, 255), rgb(18, 18, 18)); stroke: light-dark(rgb(153, 153, 153), rgb(0, 0, 0));"/><path d="M 30 120 L 180 120 L 190 110 L 190 100" fill="none" stroke="#999" stroke-miterlimit="10" pointer-events="all" style="stroke: light-dark(rgb(153, 153, 153), rgb(0, 0, 0));"/></g><g><g transform="translate(-0.5 -0.5)"><switch><foreignObject style="overflow: visible; text-align: left;" pointer-events="none" width="100%" height="100%" requiredFeatures="http://www.w3.org/TR/SVG11/feature#Extensibility"><div xmlns="http://www.w3.org/1999/xhtml" style="display: flex; align-items: unsafe center; justify-content: unsafe flex-start; width: 262px; height: 310px; padding-top: 100px; margin-left: 30px;"><div style="box-sizing: border-box; font-size: 0; text-align: left; width: 260px; height: 310px; overflow: hidden; color: #000000; "><div style="display: inline-block; font-size: 11px; font-family: &quot;Helvetica&quot;; color: light-dark(#000000, #ffffff); line-height: 1.2; pointer-events: all; width: 100%; height: 100%; white-space: normal; word-wrap: normal; "><b>UI Layer (components/)</b></div></div></div></foreignObject><text x="30" y="258" fill="light-dark(#000000, #ffffff)" font-family="&quot;Helvetica&quot;" font-size="11px">UI Layer (components/)</text></switch></g></g><g><path d="M 66 140 L 250 140 L 250 175 L 66 175 L 66 170.5 L 50 170.5 L 50 158.5 L 66 158.5 L 66 156.5 L 50 156.5 L 50 144.5 L 66 144.5 Z" fill="#ffffff" stroke="#000000" stroke-miterlimit="10" pointer-events="all" style="fill: light-dark(rgb(255, 255, 255), rgb(18, 18, 18)); stroke: light-dark(rgb(0, 0, 0), rgb(237, 237, 237));"/><path d="M 66 144.5 L 82 144.5 L 82 156.5 L 66 156.5 M 66 158.5 L 82 158.5 L 82 170.5 L 66 170.5" fill="none" stroke="#000000" stroke-miterlimit="10" pointer-events="all" style="stroke: light-dark(rgb(0, 0, 0), rgb(237, 237, 237));"/></g><g><g fill="#000000" font-family="&quot;Helvetica&quot;" font-size="10px" style="fill: light-dark(rgb(0, 0, 0), rgb(255, 255, 255));"><text x="87.5" y="161">&lt;b&gt;DynamicSidebar&lt;/b&gt;</text></g></g><g><path d="M 66 185 L 250 185 L 250 220 L 66 220 L 66 215.5 L 50 215.5 L 50 203.5 L 66 203.5 L 66 201.5 L 50 201.5 L 50 189.5 L 66 189.5 Z" fill="#ffffff" stroke="#000000" stroke-miterlimit="10" pointer-events="all" style="fill: light-dark(rgb(255, 255, 255), rgb(18, 18, 18)); stroke: light-dark(rgb(0, 0, 0), rgb(237, 237, 237));"/><path d="M 66 189.5 L 82 189.5 L 82 201.5 L 66 201.5 M 66 203.5 L 82 203.5 L 82 215.5 L 66 215.5" fill="none" stroke="#000000" stroke-miterlimit="10" pointer-events="all" style="stroke: light-dark(rgb(0, 0, 0), rgb(237, 237, 237));"/></g><g><g fill="#000000" font-family="&quot;Helvetica&quot;" font-size="10px" style="fill: light-dark(rgb(0, 0, 0), rgb(255, 255, 255));"><text x="87.5" y="206">&lt;b&gt;DynamicHeader&lt;/b&gt;</text></g></g><g><path d="M 66 230 L 250 230 L 250 265 L 66 265 L 66 260.5 L 50 260.5 L 50 248.5 L 66 248.5 L 66 246.5 L 50 246.5 L 50 234.5 L 66 234.5 Z" fill="#ffffff" stroke="#000000" stroke-miterlimit="10" pointer-events="all" style="fill: light-dark(rgb(255, 255, 255), rgb(18, 18, 18)); stroke: light-dark(rgb(0, 0, 0), rgb(237, 237, 237));"/><path d="M 66 234.5 L 82 234.5 L 82 246.5 L 66 246.5 M 66 248.5 L 82 248.5 L 82 260.5 L 66 260.5" fill="none" stroke="#000000" stroke-miterlimit="10" pointer-events="all" style="stroke: light-dark(rgb(0, 0, 0), rgb(237, 237, 237));"/></g><g><g fill="#000000" font-family="&quot;Helvetica&quot;" font-size="10px" style="fill: light-dark(rgb(0, 0, 0), rgb(255, 255, 255));"><text x="87.5" y="251">&lt;b&gt;PageLayout&lt;/b&gt;</text></g></g><g><path d="M 66 275 L 270 275 L 270 320 L 66 320 L 66 312.5 L 50 312.5 L 50 300.5 L 66 300.5 L 66 294.5 L 50 294.5 L 50 282.5 L 66 282.5 Z" fill="#ffffff" stroke="#000000" stroke-miterlimit="10" pointer-events="all" style="fill: light-dark(rgb(255, 255, 255), rgb(18, 18, 18)); stroke: light-dark(rgb(0, 0, 0), rgb(237, 237, 237));"/><path d="M 66 282.5 L 82 282.5 L 82 294.5 L 66 294.5 M 66 300.5 L 82 300.5 L 82 312.5 L 66 312.5" fill="none" stroke="#000000" stroke-miterlimit="10" pointer-events="all" style="stroke: light-dark(rgb(0, 0, 0), rgb(237, 237, 237));"/></g><g><g fill="#000000" font-family="&quot;Helvetica&quot;" font-size="10px" style="fill: light-dark(rgb(0, 0, 0), rgb(255, 255, 255));"><text x="87.5" y="295">&lt;b&gt;Shadcn/UI Components&lt;/b&gt;</text><text x="87.5" y="307">(Button, Dialog, Badge, Card...)</text></g></g><g><path d="M 66 330 L 250 330 L 250 365 L 66 365 L 66 360.5 L 50 360.5 L 50 348.5 L 66 348.5 L 66 346.5 L 50 346.5 L 50 334.5 L 66 334.5 Z" fill="#ffffff" stroke="#000000" stroke-miterlimit="10" pointer-events="all" style="fill: light-dark(rgb(255, 255, 255), rgb(18, 18, 18)); stroke: light-dark(rgb(0, 0, 0), rgb(237, 237, 237));"/><path d="M 66 334.5 L 82 334.5 L 82 346.5 L 66 346.5 M 66 348.5 L 82 348.5 L 82 360.5 L 66 360.5" fill="none" stroke="#000000" stroke-miterlimit="10" pointer-events="all" style="stroke: light-dark(rgb(0, 0, 0), rgb(237, 237, 237));"/></g><g><g fill="#000000" font-family="&quot;Helvetica&quot;" font-size="10px" style="fill: light-dark(rgb(0, 0, 0), rgb(255, 255, 255));"><text x="87.5" y="351">&lt;b&gt;Toaster &amp; Toast Hooks&lt;/b&gt;</text></g></g><g><path d="M 66 375 L 250 375 L 250 410 L 66 410 L 66 405.5 L 50 405.5 L 50 393.5 L 66 393.5 L 66 391.5 L 50 391.5 L 50 379.5 L 66 379.5 Z" fill="#ffffff" stroke="#000000" stroke-miterlimit="10" pointer-events="all" style="fill: light-dark(rgb(255, 255, 255), rgb(18, 18, 18)); stroke: light-dark(rgb(0, 0, 0), rgb(237, 237, 237));"/><path d="M 66 379.5 L 82 379.5 L 82 391.5 L 66 391.5 M 66 393.5 L 82 393.5 L 82 405.5 L 66 405.5" fill="none" stroke="#000000" stroke-miterlimit="10" pointer-events="all" style="stroke: light-dark(rgb(0, 0, 0), rgb(237, 237, 237));"/></g><g><g fill="#000000" font-family="&quot;Helvetica&quot;" font-size="10px" style="fill: light-dark(rgb(0, 0, 0), rgb(255, 255, 255));"><text x="87.5" y="390">&lt;b&gt;Framer Motion&lt;/b&gt;</text><text x="87.5" y="402">(Animations)</text></g></g><g><rect x="320" y="100" width="250" height="400" fill="#ffffff" stroke="#999" pointer-events="all" style="fill: light-dark(rgb(255, 255, 255), rgb(18, 18, 18)); stroke: light-dark(rgb(153, 153, 153), rgb(0, 0, 0));"/><path d="M 320 120 L 440 120 L 450 110 L 450 100" fill="none" stroke="#999" stroke-miterlimit="10" pointer-events="all" style="stroke: light-dark(rgb(153, 153, 153), rgb(0, 0, 0));"/></g><g><g transform="translate(-0.5 -0.5)"><switch><foreignObject style="overflow: visible; text-align: left;" pointer-events="none" width="100%" height="100%" requiredFeatures="http://www.w3.org/TR/SVG11/feature#Extensibility"><div xmlns="http://www.w3.org/1999/xhtml" style="display: flex; align-items: unsafe center; justify-content: unsafe flex-start; width: 252px; height: 400px; padding-top: 100px; margin-left: 320px;"><div style="box-sizing: border-box; font-size: 0; text-align: left; width: 250px; height: 400px; overflow: hidden; color: #000000; "><div style="display: inline-block; font-size: 11px; font-family: &quot;Helvetica&quot;; color: light-dark(#000000, #ffffff); line-height: 1.2; pointer-events: all; width: 100%; height: 100%; white-space: normal; word-wrap: normal; "><b>Pages (app/)</b></div></div></div></foreignObject><text x="320" y="303" fill="light-dark(#000000, #ffffff)" font-family="&quot;Helvetica&quot;" font-size="11px">Pages (app/)</text></switch></g></g><g><path d="M 356 140 L 540 140 L 540 170 L 356 170 L 356 167 L 340 167 L 340 155 L 356 155 L 356 155 L 340 155 L 340 143 L 356 143 Z" fill="#ffffff" stroke="#000000" stroke-miterlimit="10" pointer-events="all" style="fill: light-dark(rgb(255, 255, 255), rgb(18, 18, 18)); stroke: light-dark(rgb(0, 0, 0), rgb(237, 237, 237));"/><path d="M 356 143 L 372 143 L 372 155 L 356 155 M 356 155 L 372 155 L 372 167 L 356 167" fill="none" stroke="#000000" stroke-miterlimit="10" pointer-events="all" style="stroke: light-dark(rgb(0, 0, 0), rgb(237, 237, 237));"/></g><g><g fill="#000000" font-family="&quot;Helvetica&quot;" font-size="10px" style="fill: light-dark(rgb(0, 0, 0), rgb(255, 255, 255));"><text x="377.5" y="158.5">Landing Page</text></g></g><g><path d="M 356 180 L 540 180 L 540 210 L 356 210 L 356 207 L 340 207 L 340 195 L 356 195 L 356 195 L 340 195 L 340 183 L 356 183 Z" fill="#ffffff" stroke="#000000" stroke-miterlimit="10" pointer-events="all" style="fill: light-dark(rgb(255, 255, 255), rgb(18, 18, 18)); stroke: light-dark(rgb(0, 0, 0), rgb(237, 237, 237));"/><path d="M 356 183 L 372 183 L 372 195 L 356 195 M 356 195 L 372 195 L 372 207 L 356 207" fill="none" stroke="#000000" stroke-miterlimit="10" pointer-events="all" style="stroke: light-dark(rgb(0, 0, 0), rgb(237, 237, 237));"/></g><g><g fill="#000000" font-family="&quot;Helvetica&quot;" font-size="10px" style="fill: light-dark(rgb(0, 0, 0), rgb(255, 255, 255));"><text x="377.5" y="198.5">Admin Dashboard</text></g></g><g><path d="M 356 215 L 540 215 L 540 245 L 356 245 L 356 242 L 340 242 L 340 230 L 356 230 L 356 230 L 340 230 L 340 218 L 356 218 Z" fill="#ffffff" stroke="#000000" stroke-miterlimit="10" pointer-events="all" style="fill: light-dark(rgb(255, 255, 255), rgb(18, 18, 18)); stroke: light-dark(rgb(0, 0, 0), rgb(237, 237, 237));"/><path d="M 356 218 L 372 218 L 372 230 L 356 230 M 356 230 L 372 230 L 372 242 L 356 242" fill="none" stroke="#000000" stroke-miterlimit="10" pointer-events="all" style="stroke: light-dark(rgb(0, 0, 0), rgb(237, 237, 237));"/></g><g><g fill="#000000" font-family="&quot;Helvetica&quot;" font-size="10px" style="fill: light-dark(rgb(0, 0, 0), rgb(255, 255, 255));"><text x="377.5" y="233.5">Verify Doctors Page</text></g></g><g><path d="M 356 250 L 540 250 L 540 280 L 356 280 L 356 277 L 340 277 L 340 265 L 356 265 L 356 265 L 340 265 L 340 253 L 356 253 Z" fill="#ffffff" stroke="#000000" stroke-miterlimit="10" pointer-events="all" style="fill: light-dark(rgb(255, 255, 255), rgb(18, 18, 18)); stroke: light-dark(rgb(0, 0, 0), rgb(237, 237, 237));"/><path d="M 356 253 L 372 253 L 372 265 L 356 265 M 356 265 L 372 265 L 372 277 L 356 277" fill="none" stroke="#000000" stroke-miterlimit="10" pointer-events="all" style="stroke: light-dark(rgb(0, 0, 0), rgb(237, 237, 237));"/></g><g><g fill="#000000" font-family="&quot;Helvetica&quot;" font-size="10px" style="fill: light-dark(rgb(0, 0, 0), rgb(255, 255, 255));"><text x="377.5" y="268.5">Marketplace (Medicines)</text></g></g><g><path d="M 356 290 L 540 290 L 540 320 L 356 320 L 356 317 L 340 317 L 340 305 L 356 305 L 356 305 L 340 305 L 340 293 L 356 293 Z" fill="#ffffff" stroke="#000000" stroke-miterlimit="10" pointer-events="all" style="fill: light-dark(rgb(255, 255, 255), rgb(18, 18, 18)); stroke: light-dark(rgb(0, 0, 0), rgb(237, 237, 237));"/><path d="M 356 293 L 372 293 L 372 305 L 356 305 M 356 305 L 372 305 L 372 317 L 356 317" fill="none" stroke="#000000" stroke-miterlimit="10" pointer-events="all" style="stroke: light-dark(rgb(0, 0, 0), rgb(237, 237, 237));"/></g><g><g fill="#000000" font-family="&quot;Helvetica&quot;" font-size="10px" style="fill: light-dark(rgb(0, 0, 0), rgb(255, 255, 255));"><text x="377.5" y="308.5">Doctor Dashboard</text></g></g><g><path d="M 356 325 L 540 325 L 540 355 L 356 355 L 356 352 L 340 352 L 340 340 L 356 340 L 356 340 L 340 340 L 340 328 L 356 328 Z" fill="#ffffff" stroke="#000000" stroke-miterlimit="10" pointer-events="all" style="fill: light-dark(rgb(255, 255, 255), rgb(18, 18, 18)); stroke: light-dark(rgb(0, 0, 0), rgb(237, 237, 237));"/><path d="M 356 328 L 372 328 L 372 340 L 356 340 M 356 340 L 372 340 L 372 352 L 356 352" fill="none" stroke="#000000" stroke-miterlimit="10" pointer-events="all" style="stroke: light-dark(rgb(0, 0, 0), rgb(237, 237, 237));"/></g><g><g fill="#000000" font-family="&quot;Helvetica&quot;" font-size="10px" style="fill: light-dark(rgb(0, 0, 0), rgb(255, 255, 255));"><text x="377.5" y="343.5">Doctor Appointments</text></g></g><g><path d="M 356 360 L 540 360 L 540 390 L 356 390 L 356 387 L 340 387 L 340 375 L 356 375 L 356 375 L 340 375 L 340 363 L 356 363 Z" fill="#ffffff" stroke="#000000" stroke-miterlimit="10" pointer-events="all" style="fill: light-dark(rgb(255, 255, 255), rgb(18, 18, 18)); stroke: light-dark(rgb(0, 0, 0), rgb(237, 237, 237));"/><path d="M 356 363 L 372 363 L 372 375 L 356 375 M 356 375 L 372 375 L 372 387 L 356 387" fill="none" stroke="#000000" stroke-miterlimit="10" pointer-events="all" style="stroke: light-dark(rgb(0, 0, 0), rgb(237, 237, 237));"/></g><g><g fill="#000000" font-family="&quot;Helvetica&quot;" font-size="10px" style="fill: light-dark(rgb(0, 0, 0), rgb(255, 255, 255));"><text x="377.5" y="378.5">Prescribe Medicine</text></g></g><g><path d="M 356 400 L 540 400 L 540 430 L 356 430 L 356 427 L 340 427 L 340 415 L 356 415 L 356 415 L 340 415 L 340 403 L 356 403 Z" fill="#ffffff" stroke="#000000" stroke-miterlimit="10" pointer-events="all" style="fill: light-dark(rgb(255, 255, 255), rgb(18, 18, 18)); stroke: light-dark(rgb(0, 0, 0), rgb(237, 237, 237));"/><path d="M 356 403 L 372 403 L 372 415 L 356 415 M 356 415 L 372 415 L 372 427 L 356 427" fill="none" stroke="#000000" stroke-miterlimit="10" pointer-events="all" style="stroke: light-dark(rgb(0, 0, 0), rgb(237, 237, 237));"/></g><g><g fill="#000000" font-family="&quot;Helvetica&quot;" font-size="10px" style="fill: light-dark(rgb(0, 0, 0), rgb(255, 255, 255));"><text x="377.5" y="418.5">Patient Dashboard</text></g></g><g><path d="M 356 435 L 550 435 L 550 465 L 356 465 L 356 462 L 340 462 L 340 450 L 356 450 L 356 450 L 340 450 L 340 438 L 356 438 Z" fill="#ffffff" stroke="#000000" stroke-miterlimit="10" pointer-events="all" style="fill: light-dark(rgb(255, 255, 255), rgb(18, 18, 18)); stroke: light-dark(rgb(0, 0, 0), rgb(237, 237, 237));"/><path d="M 356 438 L 372 438 L 372 450 L 356 450 M 356 450 L 372 450 L 372 462 L 356 462" fill="none" stroke="#000000" stroke-miterlimit="10" pointer-events="all" style="stroke: light-dark(rgb(0, 0, 0), rgb(237, 237, 237));"/></g><g><g fill="#000000" font-family="&quot;Helvetica&quot;" font-size="10px" style="fill: light-dark(rgb(0, 0, 0), rgb(255, 255, 255));"><text x="377.5" y="453.5">Find Doctors + AI Suggestion</text></g></g><g><path d="M 356 470 L 540 470 L 540 500 L 356 500 L 356 497 L 340 497 L 340 485 L 356 485 L 356 485 L 340 485 L 340 473 L 356 473 Z" fill="#ffffff" stroke="#000000" stroke-miterlimit="10" pointer-events="all" style="fill: light-dark(rgb(255, 255, 255), rgb(18, 18, 18)); stroke: light-dark(rgb(0, 0, 0), rgb(237, 237, 237));"/><path d="M 356 473 L 372 473 L 372 485 L 356 485 M 356 485 L 372 485 L 372 497 L 356 497" fill="none" stroke="#000000" stroke-miterlimit="10" pointer-events="all" style="stroke: light-dark(rgb(0, 0, 0), rgb(237, 237, 237));"/></g><g><g fill="#000000" font-family="&quot;Helvetica&quot;" font-size="10px" style="fill: light-dark(rgb(0, 0, 0), rgb(255, 255, 255));"><text x="377.5" y="488.5">Chat (P2P Encrypted)</text></g></g><g><rect x="30" y="440" width="260" height="130" rx="19.5" ry="19.5" fill="none" stroke="#000000" stroke-width="2" stroke-dasharray="6 6" pointer-events="all" style="stroke: light-dark(rgb(0, 0, 0), rgb(237, 237, 237));"/></g><g><rect x="100" y="445" width="120" height="20" fill="none" stroke="none" pointer-events="all"/></g><g><g transform="translate(-0.5 -0.5)"><switch><foreignObject style="overflow: visible; text-align: left;" pointer-events="none" width="100%" height="100%" requiredFeatures="http://www.w3.org/TR/SVG11/feature#Extensibility"><div xmlns="http://www.w3.org/1999/xhtml" style="display: flex; align-items: unsafe flex-start; justify-content: unsafe center; width: 1px; height: 1px; padding-top: 452px; margin-left: 160px;"><div style="box-sizing: border-box; font-size: 0; text-align: center; color: #000000; "><div style="display: inline-block; font-size: 11px; font-family: &quot;Helvetica&quot;; color: light-dark(#000000, #ffffff); line-height: 1.2; pointer-events: all; white-space: nowrap; "><b>State &amp; Config</b></div></div></div></foreignObject><text x="160" y="463" fill="light-dark(#000000, #ffffff)" font-family="&quot;Helvetica&quot;" font-size="11px" text-anchor="middle">State &amp; Config</text></switch></g></g><g><path d="M 66 470 L 260 470 L 260 510 L 66 510 L 66 504 L 50 504 L 50 492 L 66 492 L 66 488 L 50 488 L 50 476 L 66 476 Z" fill="#ffffff" stroke="#000000" stroke-miterlimit="10" pointer-events="all" style="fill: light-dark(rgb(255, 255, 255), rgb(18, 18, 18)); stroke: light-dark(rgb(0, 0, 0), rgb(237, 237, 237));"/><path d="M 66 476 L 82 476 L 82 488 L 66 488 M 66 492 L 82 492 L 82 504 L 66 504" fill="none" stroke="#000000" stroke-miterlimit="10" pointer-events="all" style="stroke: light-dark(rgb(0, 0, 0), rgb(237, 237, 237));"/></g><g><g fill="#000000" font-family="&quot;Helvetica&quot;" font-size="10px" style="fill: light-dark(rgb(0, 0, 0), rgb(255, 255, 255));"><text x="87.5" y="487.5">&lt;b&gt;Web3Context&lt;/b&gt;</text><text x="87.5" y="499.5">(contract, account, role)</text></g></g><g><path d="M 66 520 L 260 520 L 260 560 L 66 560 L 66 554 L 50 554 L 50 542 L 66 542 L 66 538 L 50 538 L 50 526 L 66 526 Z" fill="#ffffff" stroke="#000000" stroke-miterlimit="10" pointer-events="all" style="fill: light-dark(rgb(255, 255, 255), rgb(18, 18, 18)); stroke: light-dark(rgb(0, 0, 0), rgb(237, 237, 237));"/><path d="M 66 526 L 82 526 L 82 538 L 66 538 M 66 542 L 82 542 L 82 554 L 66 554" fill="none" stroke="#000000" stroke-miterlimit="10" pointer-events="all" style="stroke: light-dark(rgb(0, 0, 0), rgb(237, 237, 237));"/></g><g><g fill="#000000" font-family="&quot;Helvetica&quot;" font-size="10px" style="fill: light-dark(rgb(0, 0, 0), rgb(255, 255, 255));"><text x="87.5" y="537.5">&lt;b&gt;config/index.js&lt;/b&gt;</text><text x="87.5" y="549.5">(ABI + Contract Address)</text></g></g><g><rect x="30" y="590" width="540" height="80" rx="12" ry="12" fill="none" stroke="#000000" stroke-width="2" stroke-dasharray="6 6" pointer-events="all" style="stroke: light-dark(rgb(0, 0, 0), rgb(237, 237, 237));"/></g><g><rect x="230" y="595" width="120" height="20" fill="none" stroke="none" pointer-events="all"/></g><g><g transform="translate(-0.5 -0.5)"><switch><foreignObject style="overflow: visible; text-align: left;" pointer-events="none" width="100%" height="100%" requiredFeatures="http://www.w3.org/TR/SVG11/feature#Extensibility"><div xmlns="http://www.w3.org/1999/xhtml" style="display: flex; align-items: unsafe flex-start; justify-content: unsafe center; width: 1px; height: 1px; padding-top: 602px; margin-left: 290px;"><div style="box-sizing: border-box; font-size: 0; text-align: center; color: #000000; "><div style="display: inline-block; font-size: 11px; font-family: &quot;Helvetica&quot;; color: light-dark(#000000, #ffffff); line-height: 1.2; pointer-events: all; white-space: nowrap; "><b>Styling Engine</b></div></div></div></foreignObject><text x="290" y="613" fill="light-dark(#000000, #ffffff)" font-family="&quot;Helvetica&quot;" font-size="11px" text-anchor="middle">Styling Engine</text></switch></g></g><g><path d="M 66 625 L 250 625 L 250 655 L 66 655 L 66 652 L 50 652 L 50 640 L 66 640 L 66 640 L 50 640 L 50 628 L 66 628 Z" fill="#ffffff" stroke="#000000" stroke-miterlimit="10" pointer-events="all" style="fill: light-dark(rgb(255, 255, 255), rgb(18, 18, 18)); stroke: light-dark(rgb(0, 0, 0), rgb(237, 237, 237));"/><path d="M 66 628 L 82 628 L 82 640 L 66 640 M 66 640 L 82 640 L 82 652 L 66 652" fill="none" stroke="#000000" stroke-miterlimit="10" pointer-events="all" style="stroke: light-dark(rgb(0, 0, 0), rgb(237, 237, 237));"/></g><g><g fill="#000000" font-family="&quot;Helvetica&quot;" font-size="10px" style="fill: light-dark(rgb(0, 0, 0), rgb(255, 255, 255));"><text x="87.5" y="643.5">Tailwind CSS v4 (OKLCH)</text></g></g><g><path d="M 346 625 L 530 625 L 530 655 L 346 655 L 346 652 L 330 652 L 330 640 L 346 640 L 346 640 L 330 640 L 330 628 L 346 628 Z" fill="#ffffff" stroke="#000000" stroke-miterlimit="10" pointer-events="all" style="fill: light-dark(rgb(255, 255, 255), rgb(18, 18, 18)); stroke: light-dark(rgb(0, 0, 0), rgb(237, 237, 237));"/><path d="M 346 628 L 362 628 L 362 640 L 346 640 M 346 640 L 362 640 L 362 652 L 346 652" fill="none" stroke="#000000" stroke-miterlimit="10" pointer-events="all" style="stroke: light-dark(rgb(0, 0, 0), rgb(237, 237, 237));"/></g><g><g fill="#000000" font-family="&quot;Helvetica&quot;" font-size="10px" style="fill: light-dark(rgb(0, 0, 0), rgb(255, 255, 255));"><text x="367.5" y="643.5">globals.css (@theme tokens)</text></g></g><g><rect x="30" y="690" width="540" height="80" rx="12" ry="12" fill="none" stroke="#000000" stroke-width="2" stroke-dasharray="6 6" pointer-events="all" style="stroke: light-dark(rgb(0, 0, 0), rgb(237, 237, 237));"/></g><g><rect x="230" y="695" width="130" height="20" fill="none" stroke="none" pointer-events="all"/></g><g><g transform="translate(-0.5 -0.5)"><switch><foreignObject style="overflow: visible; text-align: left;" pointer-events="none" width="100%" height="100%" requiredFeatures="http://www.w3.org/TR/SVG11/feature#Extensibility"><div xmlns="http://www.w3.org/1999/xhtml" style="display: flex; align-items: unsafe flex-start; justify-content: unsafe center; width: 1px; height: 1px; padding-top: 702px; margin-left: 295px;"><div style="box-sizing: border-box; font-size: 0; text-align: center; color: #000000; "><div style="display: inline-block; font-size: 11px; font-family: &quot;Helvetica&quot;; color: light-dark(#000000, #ffffff); line-height: 1.2; pointer-events: all; white-space: nowrap; "><b>Registration Pages</b></div></div></div></foreignObject><text x="295" y="713" fill="light-dark(#000000, #ffffff)" font-family="&quot;Helvetica&quot;" font-size="11px" text-anchor="middle">Registration Pages</text></switch></g></g><g><path d="M 66 725 L 250 725 L 250 755 L 66 755 L 66 752 L 50 752 L 50 740 L 66 740 L 66 740 L 50 740 L 50 728 L 66 728 Z" fill="#ffffff" stroke="#000000" stroke-miterlimit="10" pointer-events="all" style="fill: light-dark(rgb(255, 255, 255), rgb(18, 18, 18)); stroke: light-dark(rgb(0, 0, 0), rgb(237, 237, 237));"/><path d="M 66 728 L 82 728 L 82 740 L 66 740 M 66 740 L 82 740 L 82 752 L 66 752" fill="none" stroke="#000000" stroke-miterlimit="10" pointer-events="all" style="stroke: light-dark(rgb(0, 0, 0), rgb(237, 237, 237));"/></g><g><g fill="#000000" font-family="&quot;Helvetica&quot;" font-size="10px" style="fill: light-dark(rgb(0, 0, 0), rgb(255, 255, 255));"><text x="87.5" y="743.5">Register Patient</text></g></g><g><path d="M 346 725 L 530 725 L 530 755 L 346 755 L 346 752 L 330 752 L 330 740 L 346 740 L 346 740 L 330 740 L 330 728 L 346 728 Z" fill="#ffffff" stroke="#000000" stroke-miterlimit="10" pointer-events="all" style="fill: light-dark(rgb(255, 255, 255), rgb(18, 18, 18)); stroke: light-dark(rgb(0, 0, 0), rgb(237, 237, 237));"/><path d="M 346 728 L 362 728 L 362 740 L 346 740 M 346 740 L 362 740 L 362 752 L 346 752" fill="none" stroke="#000000" stroke-miterlimit="10" pointer-events="all" style="stroke: light-dark(rgb(0, 0, 0), rgb(237, 237, 237));"/></g><g><g fill="#000000" font-family="&quot;Helvetica&quot;" font-size="10px" style="fill: light-dark(rgb(0, 0, 0), rgb(255, 255, 255));"><text x="367.5" y="743.5">Register Doctor</text></g></g><g><rect x="700" y="60" width="350" height="350" fill="#ffffff" stroke="#000000" pointer-events="all" style="fill: light-dark(rgb(255, 255, 255), rgb(18, 18, 18)); stroke: light-dark(rgb(0, 0, 0), rgb(237, 237, 237));"/><path d="M 700 80 L 910 80 L 920 70 L 920 60" fill="none" stroke="#000000" stroke-miterlimit="10" pointer-events="all" style="stroke: light-dark(rgb(0, 0, 0), rgb(237, 237, 237));"/></g><g><g transform="translate(-0.5 -0.5)"><switch><foreignObject style="overflow: visible; text-align: left;" pointer-events="none" width="100%" height="100%" requiredFeatures="http://www.w3.org/TR/SVG11/feature#Extensibility"><div xmlns="http://www.w3.org/1999/xhtml" style="display: flex; align-items: unsafe center; justify-content: unsafe flex-start; width: 352px; height: 350px; padding-top: 60px; margin-left: 700px;"><div style="box-sizing: border-box; font-size: 0; text-align: left; width: 350px; height: 350px; overflow: hidden; color: #000000; "><div style="display: inline-block; font-size: 13px; font-family: &quot;Helvetica&quot;; color: light-dark(#000000, #ffffff); line-height: 1.2; pointer-events: all; width: 100%; height: 100%; white-space: normal; word-wrap: normal; "><b>Blockchain Package (web3/)</b></div></div></div></foreignObject><text x="700" y="239" fill="light-dark(#000000, #ffffff)" font-family="&quot;Helvetica&quot;" font-size="13px">Blockchain Package (web3/)</text></switch></g></g><g><path d="M 756 120 L 1000 120 L 1000 170 L 756 170 L 756 161 L 740 161 L 740 149 L 756 149 L 756 141 L 740 141 L 740 129 L 756 129 Z" fill="#ffffff" stroke="#000000" stroke-miterlimit="10" pointer-events="all" style="fill: light-dark(rgb(255, 255, 255), rgb(18, 18, 18)); stroke: light-dark(rgb(0, 0, 0), rgb(237, 237, 237));"/><path d="M 756 129 L 772 129 L 772 141 L 756 141 M 756 149 L 772 149 L 772 161 L 756 161" fill="none" stroke="#000000" stroke-miterlimit="10" pointer-events="all" style="stroke: light-dark(rgb(0, 0, 0), rgb(237, 237, 237));"/></g><g><g fill="#000000" font-family="&quot;Helvetica&quot;" font-size="11px" style="fill: light-dark(rgb(0, 0, 0), rgb(255, 255, 255));"><text x="777.5" y="142.5">&lt;b&gt;Healthcare.sol&lt;/b&gt;</text><text x="777.5" y="155.5">Main Smart Contract</text></g></g><g><path d="M 756 190 L 1000 190 L 1000 240 L 756 240 L 756 231 L 740 231 L 740 219 L 756 219 L 756 211 L 740 211 L 740 199 L 756 199 Z" fill="#ffffff" stroke="#000000" stroke-miterlimit="10" pointer-events="all" style="fill: light-dark(rgb(255, 255, 255), rgb(18, 18, 18)); stroke: light-dark(rgb(0, 0, 0), rgb(237, 237, 237));"/><path d="M 756 199 L 772 199 L 772 211 L 756 211 M 756 219 L 772 219 L 772 231 L 756 231" fill="none" stroke="#000000" stroke-miterlimit="10" pointer-events="all" style="stroke: light-dark(rgb(0, 0, 0), rgb(237, 237, 237));"/></g><g><g fill="#000000" font-family="&quot;Helvetica&quot;" font-size="11px" style="fill: light-dark(rgb(0, 0, 0), rgb(255, 255, 255));"><text x="777.5" y="212.5">&lt;b&gt;hardhat.config.js&lt;/b&gt;</text><text x="777.5" y="225.5">Network Config (localhost:8545)</text></g></g><g><path d="M 756 260 L 1000 260 L 1000 310 L 756 310 L 756 301 L 740 301 L 740 289 L 756 289 L 756 281 L 740 281 L 740 269 L 756 269 Z" fill="#ffffff" stroke="#000000" stroke-miterlimit="10" pointer-events="all" style="fill: light-dark(rgb(255, 255, 255), rgb(18, 18, 18)); stroke: light-dark(rgb(0, 0, 0), rgb(237, 237, 237));"/><path d="M 756 269 L 772 269 L 772 281 L 756 281 M 756 289 L 772 289 L 772 301 L 756 301" fill="none" stroke="#000000" stroke-miterlimit="10" pointer-events="all" style="stroke: light-dark(rgb(0, 0, 0), rgb(237, 237, 237));"/></g><g><g fill="#000000" font-family="&quot;Helvetica&quot;" font-size="11px" style="fill: light-dark(rgb(0, 0, 0), rgb(255, 255, 255));"><text x="777.5" y="282.5">&lt;b&gt;deploy.js&lt;/b&gt;</text><text x="777.5" y="295.5">Deployment Script</text></g></g><g><path d="M 756 330 L 1000 330 L 1000 380 L 756 380 L 756 371 L 740 371 L 740 359 L 756 359 L 756 351 L 740 351 L 740 339 L 756 339 Z" fill="#ffffff" stroke="#000000" stroke-miterlimit="10" pointer-events="all" style="fill: light-dark(rgb(255, 255, 255), rgb(18, 18, 18)); stroke: light-dark(rgb(0, 0, 0), rgb(237, 237, 237));"/><path d="M 756 339 L 772 339 L 772 351 L 756 351 M 756 359 L 772 359 L 772 371 L 756 371" fill="none" stroke="#000000" stroke-miterlimit="10" pointer-events="all" style="stroke: light-dark(rgb(0, 0, 0), rgb(237, 237, 237));"/></g><g><g fill="#000000" font-family="&quot;Helvetica&quot;" font-size="11px" style="fill: light-dark(rgb(0, 0, 0), rgb(255, 255, 255));"><text x="777.5" y="352.5">&lt;b&gt;ABI Artifacts&lt;/b&gt;</text><text x="777.5" y="365.5">(artifacts/contracts/)</text></g></g><g><rect x="700" y="470" width="350" height="280" fill="#ffffff" stroke="#000000" pointer-events="all" style="fill: light-dark(rgb(255, 255, 255), rgb(18, 18, 18)); stroke: light-dark(rgb(0, 0, 0), rgb(237, 237, 237));"/><path d="M 700 490 L 840 490 L 850 480 L 850 470" fill="none" stroke="#000000" stroke-miterlimit="10" pointer-events="all" style="stroke: light-dark(rgb(0, 0, 0), rgb(237, 237, 237));"/></g><g><g transform="translate(-0.5 -0.5)"><switch><foreignObject style="overflow: visible; text-align: left;" pointer-events="none" width="100%" height="100%" requiredFeatures="http://www.w3.org/TR/SVG11/feature#Extensibility"><div xmlns="http://www.w3.org/1999/xhtml" style="display: flex; align-items: unsafe center; justify-content: unsafe flex-start; width: 352px; height: 280px; padding-top: 470px; margin-left: 700px;"><div style="box-sizing: border-box; font-size: 0; text-align: left; width: 350px; height: 280px; overflow: hidden; color: #000000; "><div style="display: inline-block; font-size: 13px; font-family: &quot;Helvetica&quot;; color: light-dark(#000000, #ffffff); line-height: 1.2; pointer-events: all; width: 100%; height: 100%; white-space: normal; word-wrap: normal; "><b>External Services</b></div></div></div></foreignObject><text x="700" y="614" fill="light-dark(#000000, #ffffff)" font-family="&quot;Helvetica&quot;" font-size="13px">External Services</text></switch></g></g><g><path d="M 756 520 L 1000 520 L 1000 570 L 756 570 L 756 561 L 740 561 L 740 549 L 756 549 L 756 541 L 740 541 L 740 529 L 756 529 Z" fill="#ffffff" stroke="#000000" stroke-miterlimit="10" pointer-events="all" style="fill: light-dark(rgb(255, 255, 255), rgb(18, 18, 18)); stroke: light-dark(rgb(0, 0, 0), rgb(237, 237, 237));"/><path d="M 756 529 L 772 529 L 772 541 L 756 541 M 756 549 L 772 549 L 772 561 L 756 561" fill="none" stroke="#000000" stroke-miterlimit="10" pointer-events="all" style="stroke: light-dark(rgb(0, 0, 0), rgb(237, 237, 237));"/></g><g><g fill="#000000" font-family="&quot;Helvetica&quot;" font-size="11px" style="fill: light-dark(rgb(0, 0, 0), rgb(255, 255, 255));"><text x="777.5" y="542.5">&lt;b&gt;MetaMask Wallet&lt;/b&gt;</text><text x="777.5" y="555.5">Browser Extension</text></g></g><g><path d="M 756 590 L 1000 590 L 1000 640 L 756 640 L 756 631 L 740 631 L 740 619 L 756 619 L 756 611 L 740 611 L 740 599 L 756 599 Z" fill="#ffffff" stroke="#000000" stroke-miterlimit="10" pointer-events="all" style="fill: light-dark(rgb(255, 255, 255), rgb(18, 18, 18)); stroke: light-dark(rgb(0, 0, 0), rgb(237, 237, 237));"/><path d="M 756 599 L 772 599 L 772 611 L 756 611 M 756 619 L 772 619 L 772 631 L 756 631" fill="none" stroke="#000000" stroke-miterlimit="10" pointer-events="all" style="stroke: light-dark(rgb(0, 0, 0), rgb(237, 237, 237));"/></g><g><g fill="#000000" font-family="&quot;Helvetica&quot;" font-size="11px" style="fill: light-dark(rgb(0, 0, 0), rgb(255, 255, 255));"><text x="777.5" y="612.5">&lt;b&gt;IPFS / Pinata&lt;/b&gt;</text><text x="777.5" y="625.5">Decentralized File Storage</text></g></g><g><path d="M 756 660 L 1000 660 L 1000 710 L 756 710 L 756 701 L 740 701 L 740 689 L 756 689 L 756 681 L 740 681 L 740 669 L 756 669 Z" fill="#ffffff" stroke="#000000" stroke-miterlimit="10" pointer-events="all" style="fill: light-dark(rgb(255, 255, 255), rgb(18, 18, 18)); stroke: light-dark(rgb(0, 0, 0), rgb(237, 237, 237));"/><path d="M 756 669 L 772 669 L 772 681 L 756 681 M 756 689 L 772 689 L 772 701 L 756 701" fill="none" stroke="#000000" stroke-miterlimit="10" pointer-events="all" style="stroke: light-dark(rgb(0, 0, 0), rgb(237, 237, 237));"/></g><g><g fill="#000000" font-family="&quot;Helvetica&quot;" font-size="11px" style="fill: light-dark(rgb(0, 0, 0), rgb(255, 255, 255));"><text x="777.5" y="682.5">&lt;b&gt;Hardhat Local Network&lt;/b&gt;</text><text x="777.5" y="695.5">Ethereum Simulator (Chain 31337)</text></g></g><g><path d="M 196.45 470 L 816.17 170.97" fill="none" stroke="#000000" stroke-miterlimit="10" stroke-dasharray="3 3" pointer-events="stroke" style="stroke: light-dark(rgb(0, 0, 0), rgb(255, 255, 255));"/><path d="M 808.3 181.99 L 817.18 170.49 L 802.65 170.28" fill="none" stroke="#000000" stroke-miterlimit="10" pointer-events="all" style="stroke: light-dark(rgb(0, 0, 0), rgb(255, 255, 255));"/></g><g><g transform="translate(-0.5 -0.5)"><switch><foreignObject style="overflow: visible; text-align: left;" pointer-events="none" width="100%" height="100%" requiredFeatures="http://www.w3.org/TR/SVG11/feature#Extensibility"><div xmlns="http://www.w3.org/1999/xhtml" style="display: flex; align-items: unsafe center; justify-content: unsafe center; width: 1px; height: 1px; padding-top: 320px; margin-left: 507px;"><div style="box-sizing: border-box; font-size: 0; text-align: center; color: #000000; background-color: #ffffff; "><div style="display: inline-block; font-size: 10px; font-family: &quot;Helvetica&quot;; color: light-dark(#000000, #ffffff); line-height: 1.2; pointer-events: all; background-color: light-dark(#ffffff, var(--ge-dark-color, #121212)); white-space: nowrap; ">provides</div></div></div></foreignObject><text x="507" y="323" fill="light-dark(#000000, #ffffff)" font-family="&quot;Helvetica&quot;" font-size="10px" text-anchor="middle">provides</text></switch></g></g><g><path d="M 232.3 520 L 771.21 380.56" fill="none" stroke="#000000" stroke-miterlimit="10" stroke-dasharray="3 3" pointer-events="stroke" style="stroke: light-dark(rgb(0, 0, 0), rgb(255, 255, 255));"/><path d="M 761.34 389.83 L 772.3 380.28 L 758.08 377.24" fill="none" stroke="#000000" stroke-miterlimit="10" pointer-events="all" style="stroke: light-dark(rgb(0, 0, 0), rgb(255, 255, 255));"/></g><g><g transform="translate(-0.5 -0.5)"><switch><foreignObject style="overflow: visible; text-align: left;" pointer-events="none" width="100%" height="100%" requiredFeatures="http://www.w3.org/TR/SVG11/feature#Extensibility"><div xmlns="http://www.w3.org/1999/xhtml" style="display: flex; align-items: unsafe center; justify-content: unsafe center; width: 1px; height: 1px; padding-top: 450px; margin-left: 503px;"><div style="box-sizing: border-box; font-size: 0; text-align: center; color: #000000; background-color: #ffffff; "><div style="display: inline-block; font-size: 10px; font-family: &quot;Helvetica&quot;; color: light-dark(#000000, #ffffff); line-height: 1.2; pointer-events: all; background-color: light-dark(#ffffff, var(--ge-dark-color, #121212)); white-space: nowrap; ">uses</div></div></div></foreignObject><text x="503" y="453" fill="light-dark(#000000, #ffffff)" font-family="&quot;Helvetica&quot;" font-size="10px" text-anchor="middle">uses</text></switch></g></g><g><path d="M 260 498.08 L 737.77 534.83" fill="none" stroke="#000000" stroke-miterlimit="10" stroke-dasharray="3 3" pointer-events="stroke" style="stroke: light-dark(rgb(0, 0, 0), rgb(255, 255, 255));"/><path d="M 725.43 540.4 L 738.89 534.91 L 726.42 527.44" fill="none" stroke="#000000" stroke-miterlimit="10" pointer-events="all" style="stroke: light-dark(rgb(0, 0, 0), rgb(255, 255, 255));"/></g><g><g transform="translate(-0.5 -0.5)"><switch><foreignObject style="overflow: visible; text-align: left;" pointer-events="none" width="100%" height="100%" requiredFeatures="http://www.w3.org/TR/SVG11/feature#Extensibility"><div xmlns="http://www.w3.org/1999/xhtml" style="display: flex; align-items: unsafe center; justify-content: unsafe center; width: 1px; height: 1px; padding-top: 516px; margin-left: 499px;"><div style="box-sizing: border-box; font-size: 0; text-align: center; color: #000000; background-color: #ffffff; "><div style="display: inline-block; font-size: 10px; font-family: &quot;Helvetica&quot;; color: light-dark(#000000, #ffffff); line-height: 1.2; pointer-events: all; background-color: light-dark(#ffffff, var(--ge-dark-color, #121212)); white-space: nowrap; ">signs via</div></div></div></foreignObject><text x="499" y="519" fill="light-dark(#000000, #ffffff)" font-family="&quot;Helvetica&quot;" font-size="10px" text-anchor="middle">signs via</text></switch></g></g><g><path d="M 66 385 L 270 385 L 270 430 L 66 430 L 66 422.5 L 50 422.5 L 50 410.5 L 66 410.5 L 66 404.5 L 50 404.5 L 50 392.5 L 66 392.5 Z" fill="#ffffff" stroke="#000000" stroke-miterlimit="10" pointer-events="all" style="fill: light-dark(rgb(255, 255, 255), rgb(18, 18, 18)); stroke: light-dark(rgb(0, 0, 0), rgb(237, 237, 237));"/><path d="M 66 392.5 L 82 392.5 L 82 404.5 L 66 404.5 M 66 410.5 L 82 410.5 L 82 422.5 L 66 422.5" fill="none" stroke="#000000" stroke-miterlimit="10" pointer-events="all" style="stroke: light-dark(rgb(0, 0, 0), rgb(237, 237, 237));"/></g><g><g fill="#000000" font-family="&quot;Helvetica&quot;" font-size="10px" style="fill: light-dark(rgb(0, 0, 0), rgb(255, 255, 255));"><text x="87.5" y="399">&lt;b&gt;Chatbot.jsx&lt;/b&gt;</text><text x="87.5" y="411">HealthBot AI Widget</text><text x="87.5" y="423">(Floating Chat UI)</text></g></g><g><path d="M 336 505 L 550 505 L 550 555 L 336 555 L 336 546 L 320 546 L 320 534 L 336 534 L 336 526 L 320 526 L 320 514 L 336 514 Z" fill="#ffffff" stroke="#000000" stroke-miterlimit="10" pointer-events="all" style="fill: light-dark(rgb(255, 255, 255), rgb(18, 18, 18)); stroke: light-dark(rgb(0, 0, 0), rgb(237, 237, 237));"/><path d="M 336 514 L 352 514 L 352 526 L 336 526 M 336 534 L 352 534 L 352 546 L 336 546" fill="none" stroke="#000000" stroke-miterlimit="10" pointer-events="all" style="stroke: light-dark(rgb(0, 0, 0), rgb(237, 237, 237));"/></g><g><g fill="#000000" font-family="&quot;Helvetica&quot;" font-size="10px" style="fill: light-dark(rgb(0, 0, 0), rgb(255, 255, 255));"><text x="357.5" y="521.5">&lt;b&gt;/api/groq-chat&lt;/b&gt;</text><text x="357.5" y="533.5">Next.js Server Route</text><text x="357.5" y="545.5">(Groq SDK + System Prompt)</text></g></g><g><path d="M 756 730 L 1000 730 L 1000 780 L 756 780 L 756 771 L 740 771 L 740 759 L 756 759 L 756 751 L 740 751 L 740 739 L 756 739 Z" fill="#ffffff" stroke="#000000" stroke-miterlimit="10" pointer-events="all" style="fill: light-dark(rgb(255, 255, 255), rgb(18, 18, 18)); stroke: light-dark(rgb(0, 0, 0), rgb(237, 237, 237));"/><path d="M 756 739 L 772 739 L 772 751 L 756 751 M 756 759 L 772 759 L 772 771 L 756 771" fill="none" stroke="#000000" stroke-miterlimit="10" pointer-events="all" style="stroke: light-dark(rgb(0, 0, 0), rgb(237, 237, 237));"/></g><g><g fill="#000000" font-family="&quot;Helvetica&quot;" font-size="11px" style="fill: light-dark(rgb(0, 0, 0), rgb(255, 255, 255));"><text x="777.5" y="746">&lt;b&gt;Groq Cloud API&lt;/b&gt;</text><text x="777.5" y="759">LLaMA 3.1 8B Instant</text><text x="777.5" y="772">AI Inference (HTTPS)</text></g></g><g><path d="M 210.51 430 L 376.84 504.09" fill="none" stroke="#000000" stroke-miterlimit="10" stroke-dasharray="3 3" pointer-events="stroke" style="stroke: light-dark(rgb(0, 0, 0), rgb(255, 255, 255));"/><path d="M 363.34 505.19 L 377.86 504.55 L 368.63 493.32" fill="none" stroke="#000000" stroke-miterlimit="10" pointer-events="all" style="stroke: light-dark(rgb(0, 0, 0), rgb(255, 255, 255));"/></g><g><g transform="translate(-0.5 -0.5)"><switch><foreignObject style="overflow: visible; text-align: left;" pointer-events="none" width="100%" height="100%" requiredFeatures="http://www.w3.org/TR/SVG11/feature#Extensibility"><div xmlns="http://www.w3.org/1999/xhtml" style="display: flex; align-items: unsafe center; justify-content: unsafe center; width: 1px; height: 1px; padding-top: 467px; margin-left: 294px;"><div style="box-sizing: border-box; font-size: 0; text-align: center; color: #000000; background-color: #ffffff; "><div style="display: inline-block; font-size: 10px; font-family: &quot;Helvetica&quot;; color: light-dark(#000000, #ffffff); line-height: 1.2; pointer-events: all; background-color: light-dark(#ffffff, var(--ge-dark-color, #121212)); white-space: nowrap; ">HTTP POST</div></div></div></foreignObject><text x="294" y="470" fill="light-dark(#000000, #ffffff)" font-family="&quot;Helvetica&quot;" font-size="10px" text-anchor="middle">HTTP POST</text></switch></g></g><g><path d="M 483.33 555 L 819.68 728.97" fill="none" stroke="#000000" stroke-miterlimit="10" stroke-dasharray="3 3" pointer-events="stroke" style="stroke: light-dark(rgb(0, 0, 0), rgb(255, 255, 255));"/><path d="M 806.14 729.29 L 820.67 729.49 L 812.11 717.74" fill="none" stroke="#000000" stroke-miterlimit="10" pointer-events="all" style="stroke: light-dark(rgb(0, 0, 0), rgb(255, 255, 255));"/></g><g><g transform="translate(-0.5 -0.5)"><switch><foreignObject style="overflow: visible; text-align: left;" pointer-events="none" width="100%" height="100%" requiredFeatures="http://www.w3.org/TR/SVG11/feature#Extensibility"><div xmlns="http://www.w3.org/1999/xhtml" style="display: flex; align-items: unsafe center; justify-content: unsafe center; width: 1px; height: 1px; padding-top: 642px; margin-left: 652px;"><div style="box-sizing: border-box; font-size: 0; text-align: center; color: #000000; background-color: #ffffff; "><div style="display: inline-block; font-size: 10px; font-family: &quot;Helvetica&quot;; color: light-dark(#000000, #ffffff); line-height: 1.2; pointer-events: all; background-color: light-dark(#ffffff, var(--ge-dark-color, #121212)); white-space: nowrap; ">calls</div></div></div></foreignObject><text x="652" y="645" fill="light-dark(#000000, #ffffff)" font-family="&quot;Helvetica&quot;" font-size="10px" text-anchor="middle">calls</text></switch></g></g></g><switch><g requiredFeatures="http://www.w3.org/TR/SVG11/feature#Extensibility"/><a transform="translate(0,-5)" xlink:href="https://www.drawio.com/doc/faq/svg-export-text-problems" target="_blank"><text text-anchor="middle" font-size="10px" x="50%" y="100%">Text is not SVG - cannot display</text></a></switch></svg>